# xmcd
#
# Track frame offsets: 
#        150
#        17511
#        37408
#        55122
#        61156
#        105686
#        127835
#        132983
#        147840
#        177338
#        194527
#        209582
#        215892
#        230922
#
# Disc length: 3336 seconds
#
# Revision: 1
# Processed by: cddbd v1.5.2PL0 Copyright (c) Steve Scherf et al.
# Submitted via: ExactAudioCopy v1.3
#
DISCID=dc0d060e
DTITLE=Chris Gall - Room of Silence
DYEAR=2018
DGENRE=Jazz
TTITLE0=Behind the Curtain
TTITLE1=Room of Silence
TTITLE2=It Never Entered My Mind
TTITLE3=Interlude
TTITLE4=Another Love Song
TTITLE5=Mosaic
TTITLE6=Interlude II
TTITLE7=Julia
TTITLE8=Backstage Cadence
TTITLE9=The Puppeteer
TTITLE10=Estrada Branca
TTITLE11=Interlude III
TTITLE12=Hymn to Freedom
TTITLE13=Hays
EXTD=YEAR: 2018
EXTT0=
EXTT1=
EXTT2=
EXTT3=
EXTT4=
EXTT5=
EXTT6=
EXTT7=
EXTT8=
EXTT9=
EXTT10=
EXTT11=
EXTT12=
EXTT13=
PLAYORDER=
